<svg width="52" height="53" viewBox="-6 -6 52 53" fill="none" xmlns="http://www.w3.org/2000/svg">
<g clip-path="url(#clip0_150_605)">
<path d="M17.8394 0.750854H2.27055C1.55438 0.750854 0.973145 1.33209 0.973145 2.04826V17.6171C0.973145 18.3333 1.55438 18.9145 2.27055 18.9145H17.8394C18.5556 18.9145 19.1368 18.3333 19.1368 17.6171V2.04826C19.1368 1.33209 18.5556 0.750854 17.8394 0.750854ZM16.542 16.3197H3.56796V3.34566H16.542V16.3197Z" fill="#5C6675"/>
<path d="M38.5977 0.750793H23.0289C22.3127 0.750793 21.7314 1.33203 21.7314 2.0482V17.6171C21.7314 18.3332 22.3127 18.9145 23.0289 18.9145H38.5977C39.3139 18.9145 39.8951 18.3332 39.8951 17.6171V2.0482C39.8951 1.33203 39.3139 0.750793 38.5977 0.750793ZM37.3003 16.3197H24.3263V3.3456H37.3003V16.3197Z" fill="#5C6675"/>
<path d="M17.8394 21.5093H2.27055C1.55438 21.5093 0.973145 22.0905 0.973145 22.8067V38.3755C0.973145 39.0917 1.55438 39.673 2.27055 39.673H17.8394C18.5556 39.673 19.1368 39.0917 19.1368 38.3755V22.8067C19.1368 22.0905 18.5556 21.5093 17.8394 21.5093ZM16.542 37.0781H3.56796V24.1041H16.542V37.0781Z" fill="#5C6675"/>
<path d="M38.5977 21.5093H23.0289C22.3127 21.5093 21.7314 22.0905 21.7314 22.8067V38.3755C21.7314 39.0917 22.3127 39.673 23.0289 39.673H38.5977C39.3139 39.673 39.8951 39.0917 39.8951 38.3755V22.8067C39.8951 22.0905 39.3139 21.5093 38.5977 21.5093ZM37.3003 37.0781H24.3263V24.1041H37.3003V37.0781Z" fill="#5C6675"/>
</g>
<defs>
<clipPath id="clip0_150_605">
<rect width="38.9222" height="38.9222" fill="white" transform="translate(0.973145 0.750854)"/>
</clipPath>
</defs>
</svg>
