<svg fill="none" height="105" viewBox="0 0 104 105" width="104" xmlns="http://www.w3.org/2000/svg" xmlns:xlink="http://www.w3.org/1999/xlink"><clipPath id="a"><path d="m0 .522461h104v104h-104z"/></clipPath><g clip-path="url(#a)"><path d="m79.7339 50.7891c7.6583 0 13.8666-6.2083 13.8666-13.8666 0-7.6584-6.2083-13.8667-13.8666-13.8667-7.6584 0-13.8667 6.2083-13.8667 13.8667 0 7.6583 6.2083 13.8666 13.8667 13.8666z" fill="#eef5fe"/><g fill="#d4e6fc"><path d="m74.5331 52.5224c1.9146 0 3.4666-1.552 3.4666-3.4666s-1.552-3.4667-3.4666-3.4667-3.4667 1.5521-3.4667 3.4667 1.5521 3.4666 3.4667 3.4666z"/><path d="m37.8553 53.3544-8.58 3.8133-12.272 5.46c-.4412.1985-.9202.299-1.404.2947-1.6401.0025-3.0576-1.1447-3.397-2.7494-.3393-1.6046.4923-3.2276 1.993-3.8893l12.2547-5.46 7.592-3.38c.8724 1.0515 1.6606 2.1701 2.3573 3.3454.289.9525.7863 1.8288 1.456 2.5653z"/><path d="m36.4002 50.7891c-.6967-1.1753-1.4849-2.2939-2.3573-3.3454l-3.8896 1.7334c.3605.52.7124 1.0486 1.04 1.6137.2889.9526.7863 1.8289 1.456 2.5653l-8.58 3.8134-10.8056 4.8082c.6318.5984 1.4664.9358 2.3365.9447.4838.0043.9628-.0962 1.404-.2947l12.272-5.46 8.58-3.8133c-.6697-.7365-1.1671-1.6128-1.456-2.5653z"/><path d="m73.6144 16.5731-2.34 1.1786c-3.0513 1.5461-5.6941 3.7911-7.7134 6.552-.8527 1.2143-1.5623 2.5229-2.1146 3.9-1.76 4.7174-2.3141 9.7996-1.612 14.7854.3527 2.8124-1.0681 5.5505-3.5707 6.8813-3.0714 1.6353-6.2309 3.0993-9.464 4.3853-4.836 1.9414-7.5227.624-8.944-.9013-.6697-.7364-1.1671-1.6128-1.456-2.5653-.6967-1.1753-1.4849-2.2939-2.3573-3.3454-8.632-10.5386-21.7187-9.88-26.76271-9.1693-1.31155.1771-2.60949-.408-3.34534-1.508l-.12133-.1907c-.54002-.8037-.71619-1.7978-.48523-2.7381.23096-.9404.84765-1.7398 1.69856-2.2019l10.34805-5.7546c1.1945-.6664 2.6698-.5644 3.7613.26l3.8133 2.86c.4136.3101.8947.518 1.404.6066l-.0866.3814 3.8479 3.848c.836.8441 2.0479 1.1979 3.2067.936l11.648-2.5827c1.2855-.2835 2.2994-1.2706 2.6173-2.548l.3294-1.3347c.2296-.9188.0721-1.8917-.4358-2.6912-.5078-.7994-1.3215-1.3555-2.2509-1.5381l-5.096-1.0227h-.0346c.9013-8.7186 9.464-11.1626 14.2306-11.856l4.576-1.69863c.7344-1.3356.5978-2.98106-.3466-4.17733-.3681-.5804-.3584-1.32341.0245-1.89408.3829-.57066 1.0669-.86119 1.7435-.74059 5.9388 1.32093 11.4441 4.13028 15.9986 8.16403.8823.7535 1.3271 1.8998 1.1841 3.0512-.1431 1.1515-.8549 2.154-1.8947 2.6688z"/></g><path d="m45.9169 28.3078-.3293 1.3347c-.318 1.2773-1.3319 2.2644-2.6174 2.548l-11.648 2.5826c-1.1587.262-2.3707-.0918-3.2066-.936l-3.848-3.848.0866-.3813c.4968.1155 1.0141.1096 1.508-.0173l9.5334-2.3747c1.4741-.3614 2.5417-1.6398 2.6346-3.1547.0174-.3466.0347-.676.0694-1.0053h.0346l5.096 1.0227c.9294.1826 1.7431.7386 2.251 1.5381.5078.7995.6653 1.7723.4357 2.6912z" fill="#a4c2f7"/><path d="m43.23 24.0785-5.096-1.0227h-.0346c-.0347.3293-.052.6587-.0694 1.0053v.0174c.9294.1826 1.7431.7386 2.251 1.5381.5078.7995.6653 1.7723.4357 2.6912l-.3293 1.3347c-.318 1.2773-1.3319 2.2644-2.6174 2.548l-9.1606 2.0314c.7865.557 1.7711.7571 2.7126.5512l11.648-2.5826c1.2855-.2836 2.2994-1.2707 2.6174-2.548l.3293-1.3347c.2296-.9189.0721-1.8917-.4357-2.6912-.5079-.7995-1.3216-1.3555-2.251-1.5381z" fill="#7facfa"/><path d="m45.9329 45.589c2.3933 0 4.3334-1.9401 4.3334-4.3333s-1.9401-4.3333-4.3334-4.3333c-2.3932 0-4.3333 1.9401-4.3333 4.3333s1.9401 4.3333 4.3333 4.3333z" fill="#a4c2f7"/><path d="m55.4667 16.1224c1.9146 0 3.4666-1.5521 3.4666-3.4666 0-1.9146-1.552-3.46671-3.4666-3.46671s-3.4667 1.55211-3.4667 3.46671c0 1.9145 1.5521 3.4666 3.4667 3.4666z" fill="#c6d8fb"/><path d="m82.0725 39.4878c-1.4195 1.2848-3.6095 1.1842-4.9053-.2254l-13.6067-14.9586c1.356-1.905 3.0335-3.5591 4.9574-4.888l13.78 15.1666c1.281 1.4209 1.1805 3.6079-.2254 4.9054z" fill="#d4e6fc"/><path d="m82.2983 34.5824-13.78-15.1666c-1.0555.7352-2.0387 1.5693-2.9363 2.4908l11.5163 12.6758c1.1798 1.3139 1.1895 3.3028.0225 4.628l.0468.052c.836.9165 2.0975 1.3174 3.3092 1.0517 1.2117-.2658 2.1896-1.1578 2.5653-2.34.3758-1.1823.0922-2.4752-.7438-3.3917z" fill="#d4e6fc"/><path d="m3.81302 36.5758.12133.1907c.73585 1.1 2.03379 1.6851 3.34534 1.508.86666-.1231 1.98813-.2392 3.26731-.3016-.57022-.2719-1.05781-.6907-1.41265-1.2134l-.12133-.1837c-.54002-.8037-.71619-1.7979-.48523-2.7382s.84765-1.7397 1.69861-2.2018l9.3236-5.1844-.4143-.3103c-1.0915-.8244-2.5668-.9264-3.7613-.26l-10.34805 5.7547c-.85091.4621-1.4676 1.2615-1.69856 2.2018s-.05479 1.9345.48523 2.7382z" fill="#fff"/><g fill="#1559ac"><path d="m73.7915 55.3662h.7418l1.7334-1.4294c.8491-.3043 1.6047-.8239 2.1926-1.508.4247.0329.8424.0936 1.274.0936 6.3306.0232 12.0475-3.7818 14.4699-9.6306 2.4224-5.8489 1.0699-12.5817-3.4233-17.0413-4.4931-4.4597-11.2359-5.7618-17.0664-3.2957l-2.522-2.7733c.286-.163.5668-.3311.8666-.4802l2.3348-1.1769c1.5684-.7815 2.6376-2.3004 2.8444-4.0404.2101-1.7202-.4612-3.4303-1.7853-4.54826-4.7802-4.24195-10.5695-7.18553-16.8133-8.548801-1.3361-.258011-2.697.307771-3.4563 1.436931-.7857 1.13956-.8231 2.63594-.0953 3.81334.2499.37824.429.79876.5286 1.24106-.0485-.00866-.097-.02253-.149-.02253-1.671.0029-3.2381.81158-4.2086 2.17186-9.2664 1.5808-14.7108 6.7808-14.9604 14.3728-.0651.7425-.5977 1.3602-1.3225 1.534l-9.5472 2.3747c-.5.1221-1.0284.0126-1.4387-.2982l-3.8029-2.853c-1.641-1.2376-3.8569-1.3925-5.6541-.3952l-10.33243 5.7494c-1.27228.6901-2.19695 1.882-2.54914 3.2858-.3522 1.4039-.09966 2.8911.6962 4.1l.156.2478c1.10204 1.6555 3.05835 2.5291 5.02667 2.2447 4.8169-.6812 15.6971-1.0851 23.6132 6.8501l-4.2415 1.8859c-2.9321-3.1156-7.0229-4.8787-11.3013-4.8707-2.9856.0114-5.90647.871-8.42227 2.4787-.42007.2418-.71322.6554-.80224 1.1318-.08902.4765.03502.968.33944 1.3451.56816.6957 1.55481.8808 2.33654.4386 1.95673-1.2486 4.22733-1.917 6.54853-1.9275 2.8939-.0032 5.6922 1.0354 7.8832 2.9259l-9.9927 4.4512c-2.6268 1.1645-3.81218 4.238-2.6476 6.8648 1.1645 2.6269 4.238 3.8122 6.8648 2.6477l10.01-4.4529c-.3016 6.5354-5.7303 11.6549-12.2722 11.573-6.5418-.0818-11.8408-5.3355-11.97883-11.8764 0-.9573-.77604-1.7333-1.73334-1.7333-.95729 0-1.73333.776-1.73333 1.7333.0011686 4.7168 2.14037 9.1788 5.81707 12.1334h-4.08374c-.95729 0-1.73333.776-1.73333 1.7333s.77604 1.7333 1.73333 1.7333h38.13337c.9573 0 1.7333-.776 1.7333-1.7333s-.776-1.7333-1.7333-1.7333h-14.4838c3.6767-2.9546 5.8159-7.4166 5.8171-12.1334 0-.4021-.0191-.8094-.052-1.2133l6.4029-2.8461c.3488.2733.7218.5141 1.1146.7193 1.153.5787 2.428.8724 3.718.8563 1.7402-.0419 3.4567-.4142 5.0578-1.0972 3.2912-1.3103 6.5079-2.8004 9.6356-4.4634 3.1497-1.658 4.9356-5.1004 4.4772-8.6302-.6683-4.6946-.1517-9.4818 1.5028-13.9256.2297-.5679.49-1.1228.78-1.6623l2.1806 2.3955c-3.4581 6.3365-2.0597 14.2238 3.3661 18.9852-.0156.1733-.0503.3224-.0503.4905.0091 2.1958 1.3965 4.1492 3.4667 4.8811l1.7333 1.4207c-4.7841.0057-.7361-4.7841-.7418 0 .0057 4.7841-4.7841-.0058 0 0v-2.9374c4.7841-.0057.5957 5.7502.6014.9661l-.6014 1.9713c4.7841.0057-.0058-4.7841 0 0zm.7418-4.5771c-.9573 0-1.7333-.7761-1.7333-1.7334s.776-1.7333 1.7333-1.7333 1.7334.776 1.7334 1.7333-.7761 1.7334-1.7334 1.7334zm-19.0666-39.8667c.9573 0 1.7333.776 1.7333 1.7333s-.776 1.7334-1.7333 1.7334-1.7334-.7761-1.7334-1.7334.7761-1.7333 1.7334-1.7333zm-19.6335 17.9695c1.8515-.4774 3.2978-1.9224 3.7769-3.7735l3.2847.6569c.4648.093.8712.3723 1.1246.7728.2535.4005.3319.8873.217 1.3471l-.3311 1.3295c-.1598.6368-.6658 1.1287-1.3069 1.2705l-11.6515 2.5896c-.5779.1279-1.1811-.0479-1.5998-.4663l-1.69-1.69zm-19.5572 32.162c-.8802.3781-1.9003-.0289-2.2785-.9092-.3781-.8802.0289-1.9003.9092-2.2784l18.5934-8.2819c.449.6084.8927 1.2359 1.3087 1.9188.1299.378.2863.7464.468 1.1024zm45.7167-37.4782c-.8605 1.2461-1.5812 2.583-2.1494 3.9867-1.872 4.9893-2.4649 10.3678-1.7246 15.6451.274 2.1021-.7896 4.1526-2.6659 5.1393-3.0151 1.6049-6.1167 3.0418-9.2907 4.3039-1.8168.9564-3.9536 1.0987-5.8812.3917-1.1744-.6968-2.0316-1.8232-2.3902-3.1408-8.84-14.7177-24.5128-14.2307-30.85337-13.338-.6354.0926-1.26811-.1844-1.63106-.7141l-.14907-.234c-.26929-.4016-.35568-.8986-.23771-1.3675s.42924-.8658.85651-1.0921l10.3411-5.7512c.5974-.3369 1.3378-.2864 1.8841.1282l3.8133 2.86c.3952.2964 1.1319.8268 1.1319.8268l3.8549 3.855c1.2539 1.2613 3.0681 1.7896 4.8031 1.3988l11.6515-2.5896c1.9259-.4205 3.4452-1.8994 3.9173-3.8134l.3311-1.326c.3453-1.3794.1105-2.8401-.6495-4.042-.7601-1.2019-1.9793-2.04-3.3736-2.3193l-3.4667-.6933c1.3278-5.2 6.2123-7.4083 10.2267-8.3443.0976.7834.3733 1.5341.806 2.1944l-2.2672 3.0091c-.5744.7658-.4192 1.8523.3467 2.4266.7658.5744 1.8523.4192 2.4266-.3466l2.2742-3.0316c.4969.1638 1.016.2509 1.5392.2582 2.1373.0068 4.0596-1.2988 4.8414-3.288.7818-1.9891.2628-4.2542-1.3072-5.7045.2722-1.56319-.0876-3.17047-1.0001-4.46853 5.6501 1.25367 10.8851 3.93295 15.2065 7.78263.4373.3648.6576.9278.5842 1.4924-.0658.5859-.4268 1.0974-.9568 1.3555l-2.3348 1.1752c-3.4168 1.695-6.3448 4.2335-8.5072 7.3753zm3.8393.6535c.7452-.898 1.5734-1.7238 2.4735-2.4665l7.3666 8.1085-2.4648 2.4648zm12.168 8.2056 3.0056 3.3072c.65.707.6038 1.807-.1031 2.457-.707.65-1.807.6038-2.457-.1031l-2.9086-3.198zm-7.0391 12.8561c-3.3265-3.4419-4.2854-8.5335-2.4388-12.9497l2.2256 2.444-.0572.0572 1.1891 1.1891 4.0144 4.413c1.9404 2.1219 5.2336 2.2689 7.3554.3285s2.2689-5.2336.3285-7.3554l-7.3459-8.0912c4.5562-1.3792 9.498.0355 12.6342 3.6168s3.8865 8.6664 1.9183 13.0009-6.2908 7.1161-11.0512 7.1116c.0055-2.0781-1.2302-3.9589-3.1397-4.7789-1.9096-.82-4.1243-.4209-5.6275 1.0141z"/><path d="m3.45101 54.5018c.95729 0 1.73333-.776 1.73333-1.7333s-.77604-1.7333-1.73333-1.7333h-.01734c-.95729.0047-1.72945.7847-1.72466 1.742.00478.9572.7847 1.7294 1.742 1.7246z"/><path d="m45.9339 35.1891c-3.3506 0-6.0667 2.7161-6.0667 6.0667 0 3.3505 2.7161 6.0666 6.0667 6.0666 3.3505 0 6.0666-2.7161 6.0666-6.0666 0-3.3506-2.7161-6.0667-6.0666-6.0667zm0 8.6667c-1.0516 0-1.9997-.6335-2.4021-1.6051-.4025-.9715-.18-2.0898.5636-2.8334s1.8619-.9661 2.8334-.5636c.9716.4024 1.6051 1.3505 1.6051 2.4021 0 1.4359-1.1641 2.6-2.6 2.6z"/></g><path d="m24.5781 55.7725h30.875v9.34375h-30.875z" fill="#eef5fe"/><path d="m37.0806 104.522c-5.9046 0-10.9341-4.6025-11.4491-10.48-.0805-.9103.5935-1.7151 1.5048-1.7945.9094-.0926 1.7151.5935 1.7956 1.5058.3671 4.1805 3.9461 7.4567 8.1487 7.4567 4.3334 0 7.9215-3.3858 8.1679-7.7082.0513-.9123.8389-1.6366 1.7483-1.5591.9133.0513 1.6114.8349 1.5601 1.7492-.347 6.0726-5.3866 10.8301-11.4763 10.8301z" fill="#1559ac"/><path d="m81.2071 104.523c-3.9401 0-7.5805-2.302-9.2744-5.8628-.3933-.8259-.0422-1.8136.7836-2.209.8259-.3882 1.8146-.0392 2.208.7856 1.1477 2.4132 3.6141 3.9732 6.2828 3.9732 3.4371 0 6.3945-2.5599 6.8793-5.9568.1298-.9063.9727-1.542 1.874-1.4042.9063.1297 1.535.9687 1.4052 1.874-.7162 5.016-5.0838 8.8-10.1585 8.8z" fill="#1559ac"/><path d="m82.6327 82.4662-4.5507-28.2386h4.3556c.6518 0 1.2785-.2585 1.7392-.7202.4627-.4597.7202-1.0874.7202-1.7392 0-2.2773 0-5.6491 0-7.9265 0-.6518-.2585-1.2785-.7202-1.7392-.4597-.4627-1.0874-.7202-1.7392-.7202-2.0048 0-4.9018 0-7.3783 0-2.7179 0-4.9188 2.2009-4.9188 4.9189v30.1708c0 5.0687-4.1101 9.1778-9.1778 9.1778-.002 0-.002 0-.0051 0-2.6565 0-5.1843-1.1406-6.9427-3.1333-1.7583-1.9897-2.5771-4.6412-2.2481-7.2777.5904-4.7197 1.1588-9.2643 1.1588-9.2643s-8.8338 0-17.216 0c-8.1497 0-14.7565 6.6057-14.7565 14.7565v12.2971h49.1874z" fill="#a0c8f9"/><path d="m70.1399 94.6848h-49.1863c-.9144 0-1.6567-.7424-1.6567-1.6567v-12.2961c0-9.0501 7.3631-16.4142 16.4132-16.4142h17.2149c.4748 0 .9275.2052 1.2423.5613.3148.356.4607.8308.4024 1.3006l-1.1578 9.2663c-.2706 2.1637.4023 4.3415 1.8458 5.977 1.4435 1.6326 3.5216 2.5711 5.7014 2.5711 4.1524 0 7.5271-3.3738 7.5271-7.5211v-30.1709c0-3.6252 2.9503-6.5765 6.5756-6.5765h7.3772c1.0864 0 2.1476.4396 2.9121 1.2081.7635.7574 1.2031 1.8206 1.2031 2.907v7.9265c0 1.0874-.4406 2.1486-1.2091 2.9141-.7565.7614-1.8187 1.203-2.9071 1.203h-2.4101l4.2419 26.3183c.1458.9033-.4688 1.7533-1.3721 1.8981-.9023.16-1.7543-.4677-1.8991-1.372l-4.5507-28.2375c-.0774-.4789.0604-.9687.3742-1.3369.3149-.3691.7756-.5824 1.2614-.5824h4.3555c.2113 0 .4165-.0845.5633-.2334.1549-.1549.2404-.3601.2404-.5713v-7.9265c0-.2112-.0845-.4164-.2323-.5633-.1529-.1549-.3591-.2394-.5714-.2394h-7.3772c-1.7986 0-3.2621 1.4646-3.2621 3.2631v30.1709c0 5.975-4.8605 10.8345-10.8356 10.8345-3.1343 0-6.1168-1.3459-8.189-3.6926-2.0721-2.3468-3.0388-5.4721-2.6495-8.5783l.9254-7.4044h-15.3409c-7.2234 0-13.0998 5.8774-13.0998 13.1008v10.6404h47.5306c.9144 0 1.6568.7423 1.6568 1.6567 0 .9143-.7424 1.6557-1.6578 1.6557z" fill="#1559ac"/><path d="m55.1195 56.4064c-1.2272-1.2172-2.9171-1.9213-4.6573-1.9213h-22.1297c-1.7302 0-3.4301.7041-4.6473 1.9213-1.2272 1.2272-1.9313 2.9171-1.9313 4.6472v2.4645c0 2.2532 1.8307 4.094 4.0839 4.1141h27.0889c.5331 0 1.026-.1006 1.4887-.2817h.01c1.529-.6035 2.6154-2.0922 2.6154-3.8324v-2.4645c0-1.7301-.7042-3.42-1.9213-4.6472zm-29.2515 7.9164c-.4426 0-.7946-.3621-.7946-.8047v-2.4645c0-.855.342-1.6899.9556-2.3035.6035-.6035 1.4485-.9556 2.3035-.9556h22.1297c.8651 0 1.7.3521 2.3136.9556.6035.6036.9556 1.4485.9556 2.3035v2.4645c0 .4426-.3622.8047-.8047.8047z" fill="#1559ac"/><path d="m75.0608 47.9589h-9.8377c-.9143 0-1.6567-.7423-1.6567-1.6567 0-.9143.7413-1.6567 1.6567-1.6567h9.8377c.9154 0 1.6567.7424 1.6567 1.6567-.001.9144-.7424 1.6567-1.6567 1.6567z" fill="#1559ac"/><path d="m89.815 88.1102c-1.5079-3.0146-4.5889-4.9188-7.9587-4.9188-.516 0-1.0451 0-1.5762 0-4.5125 0-8.4476 3.072-9.542 7.4517-.344 1.3751-.5975 2.386-.5975 2.386h9.3187c1.9423 0 3.8415-.5754 5.4569-1.6527 2.1416-1.4294 4.8988-3.2662 4.8988-3.2662z" fill="#a0c8f9"/><path d="m91.3026 87.3679c-1.4385-2.8869-4.0538-4.8887-7.1017-5.5727-.5532-.1307-1.1165-.2112-1.71-.2313h-.0101c-.2011-.0202-.4124-.0302-.6236-.0302h-1.5793c-5.2809 0-9.8678 3.581-11.1453 8.701l-.2817 1.1367-.3118 1.2573c-.0402.1409-.0503.2616-.0503.4024-.01.3621.1207.7242.3521 1.016.3118.4023.7946.6337 1.2976.6337h9.3247c2.2733 0 4.4762-.6639 6.3773-1.9213l4.8988-3.2692c.694-.4627.9354-1.368.5633-2.1224zm-11.8394 4.0035h-7.2023l.0503-.171v-.0101l.0403-.1509c.865-3.4804 3.8928-5.975 7.4436-6.1762h.0101c.1609-.0201.3118-.0201.4727-.0201h1.5793c2.2733 0 4.3455 1.0361 5.7034 2.7763l-3.5609 2.3739c-1.3479.9053-2.9171 1.3781-4.5365 1.3781z" fill="#1559ac"/><path d="m38.1678 87.3066h-7.3783c-.9143 0-1.6567-.7424-1.6567-1.6567 0-.9144.7414-1.6567 1.6567-1.6567h7.3783c.9143 0 1.6567.7423 1.6567 1.6567 0 .9143-.7414 1.6567-1.6567 1.6567z" fill="#1559ac"/><path d="m38.1678 81.1916h-7.3783c-.9143 0-1.6567-.7424-1.6567-1.6567 0-.9144.7414-1.6567 1.6567-1.6567h7.3783c.9143 0 1.6567.7423 1.6567 1.6567 0 .9143-.7414 1.6567-1.6567 1.6567z" fill="#1559ac"/></g></svg>