<svg width="52" height="53" viewBox="0 0 52 53" fill="none" xmlns="http://www.w3.org/2000/svg">
<mask id="mask0_863_3007" style="mask-type:luminance" maskUnits="userSpaceOnUse" x="2" y="4" width="49" height="49">
<path d="M2 4H50.7778V52.7778H2V4Z" fill="white"/>
</mask>
<g mask="url(#mask0_863_3007)">
<path d="M29.3418 41.2502H49.3483C49.3483 36.5147 45.5095 32.676 40.7741 32.676H40.4139" stroke="#5C6675" stroke-width="2.85807" stroke-miterlimit="10"/>
<path d="M33.6304 9.81138H40.7756V29.8179C40.7756 36.1318 35.6571 41.2502 29.3433 41.2502H5.52344" stroke="#5C6675" stroke-width="2.85807" stroke-miterlimit="10"/>
<path d="M46.4902 11.2404V19.8146" stroke="#5C6675" stroke-width="2.85807" stroke-miterlimit="10"/>
<path d="M23.5312 35.5341H29.3427C32.4996 35.5341 35.0588 32.9748 35.0588 29.8179V21.2437C35.0588 18.0868 37.618 15.5275 40.775 15.5275H46.4911" stroke="#5C6675" stroke-width="2.85807" stroke-miterlimit="10"/>
<path d="M23.5315 26.9598H3.42969V24.1018C3.42969 22.5233 4.70934 21.2437 6.28776 21.2437H17.7201C20.877 21.2437 23.5315 23.8029 23.5315 26.9598Z" stroke="#5C6675" stroke-width="2.85807" stroke-miterlimit="10"/>
<path d="M3.42969 35.5341H10.5749" stroke="#5C6675" stroke-width="2.85807" stroke-miterlimit="10"/>
<path d="M46.2462 41.2502C46.4042 41.6972 46.4902 42.1781 46.4902 42.6793C46.4902 45.047 44.5708 46.9664 42.2031 46.9664C39.8354 46.9664 37.916 45.047 37.916 42.6793C37.916 42.1781 38.0019 41.6972 38.1599 41.2502" stroke="#5C6675" stroke-width="2.85807" stroke-miterlimit="10"/>
<path d="M14.6173 41.2502C14.7753 41.6972 14.8613 42.1781 14.8613 42.6793C14.8613 45.047 12.9419 46.9664 10.5742 46.9664C8.2065 46.9664 6.28711 45.047 6.28711 42.6793C6.28711 42.1781 6.37304 41.6972 6.531 41.2502" stroke="#5C6675" stroke-width="2.85807" stroke-miterlimit="10"/>
<path d="M23.5315 41.2502H3.42969V32.676C3.42969 29.519 5.9889 26.9598 9.14583 26.9598H17.7201C20.877 26.9598 23.5315 29.519 23.5315 32.676V41.2502Z" stroke="#5C6675" stroke-width="2.85807" stroke-miterlimit="10"/>
</g>
<path d="M8.59968 17.7528L11.9592 13.1894L6.77769 11.7609L15.7993 5.32748L17.1187 5.51968L13.7591 10.0831L18.9407 11.5116L9.91909 17.945L8.59968 17.7528Z" fill="#5C6675"/>
</svg>
