<svg width="104" height="105" viewBox="0 0 104 105" fill="none" xmlns="http://www.w3.org/2000/svg">
<g clip-path="url(#clip0_958_3335)">
<g clip-path="url(#clip1_958_3335)">
<path d="M100.333 30.0002V91.6669C100.333 93.435 99.6303 95.1307 98.3801 96.381C97.1298 97.6312 95.4341 98.3336 93.666 98.3336H10.3327C8.56457 98.3336 6.86888 97.6312 5.61864 96.381C4.36839 95.1307 3.66602 93.435 3.66602 91.6669V30.0002H100.333Z" fill="#EEF5FE"/>
<path d="M95.3327 30.0002V91.6669C95.3327 93.435 94.6303 95.1307 93.3801 96.381C92.1298 97.6312 90.4341 98.3336 88.666 98.3336H93.666C95.4341 98.3336 97.1298 97.6312 98.3801 96.381C99.6303 95.1307 100.333 93.435 100.333 91.6669V30.0002H95.3327Z" fill="#D4E6FC"/>
<path d="M100.333 20V30H3.66602V20C3.66602 18.2319 4.36839 16.5362 5.61864 15.286C6.86888 14.0358 8.56457 13.3334 10.3327 13.3334H16.9993V18.3334C16.9993 19.6595 17.5261 20.9312 18.4638 21.8689C19.4015 22.8066 20.6733 23.3334 21.9993 23.3334C23.3254 23.3334 24.5972 22.8066 25.5349 21.8689C26.4726 20.9312 26.9993 19.6595 26.9993 18.3334V13.3334H36.9993V18.3334C36.9993 19.6595 37.5261 20.9312 38.4638 21.8689C39.4015 22.8066 40.6733 23.3334 41.9993 23.3334C43.3254 23.3334 44.5972 22.8066 45.5349 21.8689C46.4726 20.9312 46.9993 19.6595 46.9993 18.3334V13.3334H56.9993V18.3334C56.9993 19.6595 57.5261 20.9312 58.4638 21.8689C59.4015 22.8066 60.6733 23.3334 61.9993 23.3334C63.3254 23.3334 64.5972 22.8066 65.5349 21.8689C66.4726 20.9312 66.9993 19.6595 66.9993 18.3334V13.3334H76.9993V18.3334C76.9993 19.6595 77.5261 20.9312 78.4638 21.8689C79.4015 22.8066 80.6733 23.3334 81.9993 23.3334C83.3254 23.3334 84.5972 22.8066 85.5349 21.8689C86.4726 20.9312 86.9993 19.6595 86.9993 18.3334V13.3334H93.666C95.4341 13.3334 97.1298 14.0358 98.3801 15.286C99.6303 16.5362 100.333 18.2319 100.333 20Z" fill="#A4C2F7"/>
<path d="M93.666 13.3334H88.666C90.4341 13.3334 92.1298 14.0358 93.3801 15.286C94.6303 16.5362 95.3327 18.2319 95.3327 20V30H100.333V20C100.333 18.2319 99.6303 16.5362 98.3801 15.286C97.1298 14.0358 95.4341 13.3334 93.666 13.3334Z" fill="#7FACFA"/>
<path d="M27.0039 8.33301V18.333C27.0039 19.6591 26.4771 20.9309 25.5394 21.8685C24.6018 22.8062 23.33 23.333 22.0039 23.333C20.6778 23.333 19.4061 22.8062 18.4684 21.8685C17.5307 20.9309 17.0039 19.6591 17.0039 18.333V8.33301C17.0039 7.00693 17.5307 5.73516 18.4684 4.79747C19.4061 3.85979 20.6778 3.33301 22.0039 3.33301C23.33 3.33301 24.6018 3.85979 25.5394 4.79747C26.4771 5.73516 27.0039 7.00693 27.0039 8.33301Z" fill="#EEF5FE"/>
<path d="M47 8.33301V18.333C47 19.6591 46.4732 20.9309 45.5355 21.8685C44.5979 22.8062 43.3261 23.333 42 23.333C40.6739 23.333 39.4021 22.8062 38.4645 21.8685C37.5268 20.9309 37 19.6591 37 18.333V8.33301C37 7.00693 37.5268 5.73516 38.4645 4.79747C39.4021 3.85979 40.6739 3.33301 42 3.33301C43.3261 3.33301 44.5979 3.85979 45.5355 4.79747C46.4732 5.73516 47 7.00693 47 8.33301Z" fill="#EEF5FE"/>
<path d="M67.0039 8.33301V18.333C67.0039 19.6591 66.4771 20.9309 65.5394 21.8685C64.6018 22.8062 63.33 23.333 62.0039 23.333C60.6778 23.333 59.4061 22.8062 58.4684 21.8685C57.5307 20.9309 57.0039 19.6591 57.0039 18.333V8.33301C57.0039 7.00693 57.5307 5.73516 58.4684 4.79747C59.4061 3.85979 60.6778 3.33301 62.0039 3.33301C63.33 3.33301 64.6018 3.85979 65.5394 4.79747C66.4771 5.73516 67.0039 7.00693 67.0039 8.33301Z" fill="#EEF5FE"/>
<path d="M87.0039 8.33301V18.333C87.0039 19.6591 86.4771 20.9309 85.5394 21.8685C84.6018 22.8062 83.33 23.333 82.0039 23.333C80.6778 23.333 79.4061 22.8062 78.4684 21.8685C77.5307 20.9309 77.0039 19.6591 77.0039 18.333V8.33301C77.0039 7.00693 77.5307 5.73516 78.4684 4.79747C79.4061 3.85979 80.6778 3.33301 82.0039 3.33301C83.33 3.33301 84.6018 3.85979 85.5394 4.79747C86.4771 5.73516 87.0039 7.00693 87.0039 8.33301Z" fill="#EEF5FE"/>
<path d="M10.3327 98.3334H15.3327C13.5646 98.3334 11.8689 97.631 10.6186 96.3808C9.36839 95.1305 8.66602 93.4348 8.66602 91.6667V20C8.66602 18.2319 9.36839 16.5362 10.6186 15.286C11.8689 14.0358 13.5646 13.3334 15.3327 13.3334H10.3327C8.56457 13.3334 6.86888 14.0358 5.61864 15.286C4.36839 16.5362 3.66602 18.2319 3.66602 20V91.6667C3.66602 93.4348 4.36839 95.1305 5.61864 96.3808C6.86888 97.631 8.56457 98.3334 10.3327 98.3334Z" fill="white"/>
<path d="M2 78.3335H5.33333V91.6668H2V78.3335Z" fill="white"/>
<path d="M3.69846 86.6665C3.25643 86.6687 2.83163 86.4952 2.51751 86.1842C2.20338 85.8732 2.02567 85.4502 2.02346 85.0081C2.02125 84.5661 2.19472 84.1413 2.50572 83.8272C2.81672 83.5131 3.23976 83.3353 3.68179 83.3331H3.69846C4.14049 83.3331 4.56441 83.5087 4.87697 83.8213C5.18953 84.1338 5.36512 84.5578 5.36512 84.9998C5.36512 85.4418 5.18953 85.8657 4.87697 86.1783C4.56441 86.4909 4.14049 86.6665 3.69846 86.6665Z" fill="#1559AC"/>
<path d="M93.6667 11.6666H88.6667V8.33329C88.6667 6.56518 87.9643 4.86949 86.714 3.61925C85.4638 2.36901 83.7681 1.66663 82 1.66663C80.2319 1.66663 78.5362 2.36901 77.286 3.61925C76.0357 4.86949 75.3333 6.56518 75.3333 8.33329V11.6666H68.6667V8.33329C68.6667 6.56518 67.9643 4.86949 66.714 3.61925C65.4638 2.36901 63.7681 1.66663 62 1.66663C60.2319 1.66663 58.5362 2.36901 57.286 3.61925C56.0357 4.86949 55.3333 6.56518 55.3333 8.33329V11.6666H48.6667V8.33329C48.6667 6.56518 47.9643 4.86949 46.714 3.61925C45.4638 2.36901 43.7681 1.66663 42 1.66663C40.2319 1.66663 38.5362 2.36901 37.286 3.61925C36.0357 4.86949 35.3333 6.56518 35.3333 8.33329V11.6666H28.6667V8.33329C28.6667 6.56518 27.9643 4.86949 26.714 3.61925C25.4638 2.36901 23.7681 1.66663 22 1.66663C20.2319 1.66663 18.5362 2.36901 17.286 3.61925C16.0357 4.86949 15.3333 6.56518 15.3333 8.33329V11.6666H10.3333C8.12401 11.6693 6.00593 12.5481 4.4437 14.1103C2.88147 15.6726 2.00265 17.7906 2 20L2 78.3333C2 78.7753 2.17559 79.1993 2.48816 79.5118C2.80072 79.8244 3.22464 80 3.66667 80C4.10869 80 4.53262 79.8244 4.84518 79.5118C5.15774 79.1993 5.33333 78.7753 5.33333 78.3333V31.6666H98.6667V91.6666C98.6667 92.9927 98.1399 94.2645 97.2022 95.2022C96.2645 96.1399 94.9927 96.6666 93.6667 96.6666H10.3333C9.00725 96.6666 7.73548 96.1399 6.7978 95.2022C5.86012 94.2645 5.33333 92.9927 5.33333 91.6666C5.33333 91.2246 5.15774 90.8007 4.84518 90.4881C4.53262 90.1756 4.10869 90 3.66667 90C3.22464 90 2.80072 90.1756 2.48816 90.4881C2.17559 90.8007 2 91.2246 2 91.6666C2.00265 93.876 2.88147 95.994 4.4437 97.5563C6.00593 99.1185 8.12401 99.9973 10.3333 100H93.6667C95.876 99.9973 97.9941 99.1185 99.5563 97.5563C101.119 95.994 101.997 93.876 102 91.6666V20C101.997 17.7906 101.119 15.6726 99.5563 14.1103C97.9941 12.5481 95.876 11.6693 93.6667 11.6666ZM78.6667 8.33329C78.6667 7.44924 79.0179 6.60139 79.643 5.97627C80.2681 5.35115 81.1159 4.99996 82 4.99996C82.8841 4.99996 83.7319 5.35115 84.357 5.97627C84.9821 6.60139 85.3333 7.44924 85.3333 8.33329V18.3333C85.3333 19.2174 84.9821 20.0652 84.357 20.6903C83.7319 21.3154 82.8841 21.6666 82 21.6666C81.1159 21.6666 80.2681 21.3154 79.643 20.6903C79.0179 20.0652 78.6667 19.2174 78.6667 18.3333V8.33329ZM58.6667 8.33329C58.6667 7.44924 59.0179 6.60139 59.643 5.97627C60.2681 5.35115 61.1159 4.99996 62 4.99996C62.8841 4.99996 63.7319 5.35115 64.357 5.97627C64.9821 6.60139 65.3333 7.44924 65.3333 8.33329V18.3333C65.3333 19.2174 64.9821 20.0652 64.357 20.6903C63.7319 21.3154 62.8841 21.6666 62 21.6666C61.1159 21.6666 60.2681 21.3154 59.643 20.6903C59.0179 20.0652 58.6667 19.2174 58.6667 18.3333V8.33329ZM38.6667 8.33329C38.6667 7.44924 39.0179 6.60139 39.643 5.97627C40.2681 5.35115 41.1159 4.99996 42 4.99996C42.8841 4.99996 43.7319 5.35115 44.357 5.97627C44.9821 6.60139 45.3333 7.44924 45.3333 8.33329V18.3333C45.3333 19.2174 44.9821 20.0652 44.357 20.6903C43.7319 21.3154 42.8841 21.6666 42 21.6666C41.1159 21.6666 40.2681 21.3154 39.643 20.6903C39.0179 20.0652 38.6667 19.2174 38.6667 18.3333V8.33329ZM18.6667 8.33329C18.6667 7.44924 19.0179 6.60139 19.643 5.97627C20.2681 5.35115 21.1159 4.99996 22 4.99996C22.8841 4.99996 23.7319 5.35115 24.357 5.97627C24.9821 6.60139 25.3333 7.44924 25.3333 8.33329V18.3333C25.3333 19.2174 24.9821 20.0652 24.357 20.6903C23.7319 21.3154 22.8841 21.6666 22 21.6666C21.1159 21.6666 20.2681 21.3154 19.643 20.6903C19.0179 20.0652 18.6667 19.2174 18.6667 18.3333V8.33329ZM5.33333 28.3333V20C5.33333 18.6739 5.86012 17.4021 6.7978 16.4644C7.73548 15.5267 9.00725 15 10.3333 15H15.3333V18.3333C15.3333 20.1014 16.0357 21.7971 17.286 23.0473C18.5362 24.2976 20.2319 25 22 25C23.7681 25 25.4638 24.2976 26.714 23.0473C27.9643 21.7971 28.6667 20.1014 28.6667 18.3333V15H35.3333V18.3333C35.3333 20.1014 36.0357 21.7971 37.286 23.0473C38.5362 24.2976 40.2319 25 42 25C43.7681 25 45.4638 24.2976 46.714 23.0473C47.9643 21.7971 48.6667 20.1014 48.6667 18.3333V15H55.3333V18.3333C55.3333 20.1014 56.0357 21.7971 57.286 23.0473C58.5362 24.2976 60.2319 25 62 25C63.7681 25 65.4638 24.2976 66.714 23.0473C67.9643 21.7971 68.6667 20.1014 68.6667 18.3333V15H75.3333V18.3333C75.3333 20.1014 76.0357 21.7971 77.286 23.0473C78.5362 24.2976 80.2319 25 82 25C83.7681 25 85.4638 24.2976 86.714 23.0473C87.9643 21.7971 88.6667 20.1014 88.6667 18.3333V15H93.6667C94.9927 15 96.2645 15.5267 97.2022 16.4644C98.1399 17.4021 98.6667 18.6739 98.6667 20V28.3333H5.33333Z" fill="#1559AC"/>
</g>
<path d="M68.5955 92C73.7107 92 78.0677 88.0124 78.5139 82.9207C78.5836 82.1321 77.9998 81.435 77.2103 81.3661C76.4225 81.286 75.7245 81.8803 75.6548 82.6706C75.3367 86.2922 72.2362 89.1304 68.5955 89.1304C64.8414 89.1304 61.7331 86.1972 61.5196 82.4528C61.4752 81.6624 60.7928 81.035 60.0051 81.1021C59.2138 81.1465 58.6091 81.8254 58.6535 82.6175C58.9542 87.8782 63.3199 92 68.5955 92Z" fill="#1559AC"/>
<path d="M30.3669 92C33.7802 92 36.9339 90.0062 38.4013 86.9214C38.7421 86.206 38.4379 85.3503 37.7225 85.0078C37.0071 84.6714 36.1505 84.9738 35.8098 85.6884C34.8155 87.7789 32.6788 89.1305 30.3669 89.1305C27.3893 89.1305 24.8273 86.9127 24.4073 83.9699C24.2949 83.1848 23.5647 82.6341 22.7839 82.7535C21.9987 82.8659 21.4541 83.5926 21.5665 84.3769C22.187 88.7226 25.9706 92 30.3669 92Z" fill="#1559AC"/>
<path d="M29.1312 72.8925L33.0734 48.4293H29.3002C28.7356 48.4293 28.1927 48.2054 27.7936 47.8054C27.3927 47.4072 27.1696 46.8634 27.1696 46.2987C27.1696 44.3258 27.1696 41.4049 27.1696 39.432C27.1696 38.8673 27.3936 38.3244 27.7936 37.9253C28.1918 37.5245 28.7356 37.3014 29.3002 37.3014C31.037 37.3014 33.5466 37.3014 35.692 37.3014C38.0466 37.3014 39.9532 39.208 39.9532 41.5626V67.6997C39.9532 72.0908 43.5138 75.6505 47.904 75.6505C47.9058 75.6505 47.9058 75.6505 47.9084 75.6505C50.2098 75.6505 52.3996 74.6623 53.9229 72.9361C55.4461 71.2124 56.1554 68.9154 55.8705 66.6314C55.359 62.5427 54.8666 58.6057 54.8666 58.6057C54.8666 58.6057 62.5194 58.6057 69.7808 58.6057C76.841 58.6057 82.5645 64.3283 82.5645 71.3893V82.0423H39.9532L29.1312 72.8925Z" fill="#A0C8F9"/>
<path d="M39.9544 83.4776H82.5648C83.3569 83.4776 84 82.8345 84 82.0424V71.3902C84 63.5501 77.6213 57.1705 69.7812 57.1705H54.8678C54.4565 57.1705 54.0644 57.3483 53.7916 57.6568C53.5189 57.9652 53.3925 58.3765 53.443 58.7835L54.446 66.8109C54.6805 68.6854 54.0975 70.572 52.847 71.9889C51.5965 73.4032 49.7962 74.2162 47.9078 74.2162C44.3106 74.2162 41.3871 71.2935 41.3871 67.7007V41.5635C41.3871 38.4229 38.8312 35.8662 35.6906 35.8662H29.2997C28.3586 35.8662 27.4392 36.247 26.7769 36.9128C26.1155 37.569 25.7347 38.49 25.7347 39.4312V46.2979C25.7347 47.2399 26.1164 48.1592 26.7822 48.8224C27.4375 49.482 28.3577 49.8646 29.3006 49.8646H31.3885L27.7137 72.6642C27.5874 73.4468 28.1198 74.1831 28.9023 74.3086C29.684 74.4471 30.4221 73.9034 30.5476 73.12L34.4898 48.6577C34.5569 48.2429 34.4375 47.8185 34.1657 47.4996C33.8929 47.1798 33.4938 46.995 33.0729 46.995H29.2997C29.1167 46.995 28.9389 46.9218 28.8117 46.7929C28.6775 46.6587 28.6034 46.4809 28.6034 46.2979V39.4312C28.6034 39.2482 28.6766 39.0704 28.8047 38.9432C28.9372 38.809 29.1158 38.7358 29.2997 38.7358H35.6906C37.2487 38.7358 38.5166 40.0046 38.5166 41.5626V67.6998C38.5166 72.876 42.7273 77.0858 47.9035 77.0858C50.6188 77.0858 53.2025 75.9198 54.9976 73.8868C56.7928 71.8538 57.6302 69.1463 57.2929 66.4554L56.4912 60.0409H69.7812C76.0388 60.0409 81.1296 65.1326 81.1296 71.3902V80.608H39.9536C39.1615 80.608 38.5184 81.2511 38.5184 82.0432C38.5184 82.8354 39.1615 83.4776 39.9544 83.4776Z" fill="#1559AC"/>
<path d="M52.9702 50.3166C54.0334 49.2622 55.4973 48.6522 57.0049 48.6522H76.176C77.6748 48.6522 79.1475 49.2622 80.2019 50.3166C81.265 51.3797 81.875 52.8437 81.875 54.3425V56.4775C81.875 58.4295 80.289 60.0242 78.3371 60.0416H54.8699C54.4081 60.0416 53.9811 59.9544 53.5802 59.7976H53.5715C52.247 59.2747 51.3058 57.9851 51.3058 56.4775V54.3425C51.3058 52.8437 51.9158 51.3797 52.9702 50.3166ZM78.3109 57.1746C78.6943 57.1746 78.9993 56.8609 78.9993 56.4775V54.3425C78.9993 53.6018 78.7031 52.8786 78.1715 52.347C77.6486 51.8242 76.9167 51.5192 76.176 51.5192H57.0049C56.2555 51.5192 55.5322 51.8242 55.0006 52.347C54.4778 52.8699 54.1728 53.6018 54.1728 54.3425V56.4775C54.1728 56.8609 54.4865 57.1746 54.8699 57.1746H78.3109Z" fill="#1559AC"/>
<path d="M35.6928 42.9988H44.2152C45.0073 42.9988 45.6504 42.3557 45.6504 41.5636C45.6504 40.7715 45.0082 40.1284 44.2152 40.1284H35.6928C34.8998 40.1284 34.2575 40.7715 34.2575 41.5636C34.2584 42.3557 34.9007 42.9988 35.6928 42.9988Z" fill="#1559AC"/>
<path d="M22.9072 77.7822C24.2135 75.1706 26.8826 73.521 29.8018 73.521C30.2489 73.521 30.7072 73.521 31.1673 73.521C35.0765 73.521 38.4855 76.1823 39.4336 79.9764C39.7316 81.1676 39.9512 82.0434 39.9512 82.0434C39.9512 82.0434 35.032 82.0434 31.8784 82.0434C30.1957 82.0434 28.5505 81.545 27.151 80.6117C25.2958 79.3734 22.9072 77.7822 22.9072 77.7822Z" fill="#A0C8F9"/>
<path d="M21.6187 77.139C22.8648 74.6381 25.1305 72.904 27.7709 72.3114C28.2502 72.1981 28.7382 72.1284 29.2523 72.111H29.261C29.4353 72.0936 29.6183 72.0848 29.8013 72.0848H31.1694C35.7443 72.0848 39.7179 75.1871 40.8246 79.6226L41.0686 80.6073L41.3388 81.6965C41.3736 81.8185 41.3823 81.9231 41.3823 82.0451C41.3911 82.3588 41.2778 82.6725 41.0774 82.9252C40.8072 83.2738 40.3889 83.4742 39.9532 83.4742H31.8752C29.9058 83.4742 27.9974 82.8991 26.3505 81.8098L22.1067 78.9777C21.5054 78.5769 21.2963 77.7926 21.6187 77.139ZM31.8752 80.6073H38.1145L38.071 80.4591V80.4504L38.0361 80.3197C37.2867 77.3046 34.6638 75.1435 31.5877 74.9692H31.579C31.4395 74.9518 31.3088 74.9518 31.1694 74.9518H29.8013C27.8319 74.9518 26.0368 75.8493 24.8604 77.3569L27.9452 79.4134C29.1129 80.1977 30.4723 80.6073 31.8752 80.6073Z" fill="#1559AC"/>
<path d="M67.6515 77.0859H74.0433C74.8354 77.0859 75.4785 76.4428 75.4785 75.6507C75.4785 74.8586 74.8363 74.2155 74.0433 74.2155H67.6515C66.8594 74.2155 66.2163 74.8586 66.2163 75.6507C66.2163 76.4428 66.8585 77.0859 67.6515 77.0859Z" fill="#1559AC"/>
<path d="M67.6515 71.7883H74.0433C74.8354 71.7883 75.4785 71.1452 75.4785 70.3531C75.4785 69.5609 74.8363 68.9178 74.0433 68.9178H67.6515C66.8594 68.9178 66.2163 69.5609 66.2163 70.3531C66.2163 71.1452 66.8585 71.7883 67.6515 71.7883Z" fill="#1559AC"/>
</g>
<defs>
<clipPath id="clip0_958_3335">
<rect width="104" height="104" fill="white" transform="translate(0 0.522461)"/>
</clipPath>
<clipPath id="clip1_958_3335">
<rect width="100" height="100" fill="white" transform="translate(2)"/>
</clipPath>
</defs>
</svg>
