<svg width="104" height="105" viewBox="0 0 104 105" fill="none" xmlns="http://www.w3.org/2000/svg">
<g clip-path="url(#clip0_958_3304)">
<path d="M93.0388 51.2294C88.5391 80.6683 58.3288 99.4299 52.8515 102.564C52.591 102.714 52.2957 102.793 51.9952 102.793C51.6947 102.793 51.3994 102.714 51.1389 102.564C45.1849 99.1491 10.4004 77.5448 10.4004 43.8558C10.4005 38.3168 11.5067 32.8337 13.6541 27.7279C15.8016 22.6222 18.9471 17.9968 22.906 14.1229C26.8649 10.2491 31.5576 7.20484 36.7088 5.1688C41.8599 3.13276 47.3658 2.14591 52.9035 2.26615C78.1841 2.80002 96.8608 26.2312 93.0388 51.2294Z" fill="#EEF5FE"/>
<path d="M52.9026 2.25585C51.7187 2.23158 50.5504 2.26971 49.3926 2.34078C73.8083 3.85918 91.575 26.7808 87.8379 51.2208C83.6935 78.3492 57.7507 96.3914 49.3995 101.52C50.1084 101.957 50.7064 102.311 51.1328 102.56C51.3933 102.71 51.6886 102.789 51.9891 102.789C52.2897 102.789 52.5849 102.71 52.8454 102.56C58.3227 99.4265 88.533 80.6649 93.0327 51.226C96.8599 26.2313 78.1832 2.80011 52.9026 2.25585Z" fill="#D4E6FC"/>
<path d="M65.1387 80.2557C61.0794 84.1606 56.6827 87.6989 52 90.8291C47.3214 87.6933 42.9252 84.1555 38.8613 80.2557H65.1387Z" fill="#A4C2F7"/>
<path d="M52.8515 102.564C53.2831 102.316 53.8915 101.961 54.6004 101.524C45.5125 95.9442 15.6004 75.1043 15.6004 43.8558C15.6035 33.275 19.6383 23.093 26.8836 15.382C34.129 7.67108 44.0403 3.0107 54.6004 2.3494C54.0388 2.31474 53.4789 2.2766 52.9104 2.26447C47.372 2.14329 41.8652 3.1295 36.7132 5.16523C31.5611 7.20096 26.8675 10.2452 22.9078 14.1193C18.9481 17.9935 15.8021 22.6194 13.6543 27.7258C11.5065 32.8322 10.4002 38.3161 10.4004 43.8558C10.4004 77.5449 45.1849 99.1491 51.1337 102.557C51.3942 102.709 51.6901 102.79 51.9917 102.791C52.2932 102.792 52.5898 102.714 52.8515 102.564Z" fill="white"/>
<path d="M14.0775 57.0517L10.7443 58.005L10.2243 56.2942L9.87935 54.5332L9.21375 51.0093C8.87402 48.645 8.85322 46.2392 8.66602 43.8558H12.1327C12.3199 46.0762 12.3285 48.3157 12.6527 50.5188L13.2767 53.8121L13.5869 55.4553L14.0775 57.0517Z" fill="white"/>
<path d="M11.9161 61.749C12.3616 62.9745 12.9284 64.1514 13.431 65.3543C14.4764 67.7372 15.6636 70.0554 16.9861 72.2963C19.6938 76.7139 22.8195 80.8611 26.3201 84.681C33.3061 92.2872 41.379 98.8181 50.2765 104.061C50.8008 104.363 51.3947 104.522 51.9994 104.522C52.5995 104.522 53.1889 104.363 53.7085 104.063C57.4109 101.945 90.0132 82.4693 94.7486 51.4877C95.7107 45.1875 95.3172 38.7545 93.5946 32.6185C91.872 26.4825 88.8599 20.7848 84.7594 15.9058C79.0459 9.14992 71.3935 4.31388 62.8392 2.053C54.2849 -0.207869 45.2424 0.215738 36.937 3.26642C28.6316 6.31711 21.4648 11.8474 16.4078 19.1078C11.3508 26.3683 8.6482 35.0078 8.6661 43.8558C8.6661 44.3155 8.84872 44.7564 9.17379 45.0815C9.49885 45.4065 9.93973 45.5891 10.3994 45.5891C10.8591 45.5891 11.3 45.4065 11.6251 45.0815C11.9502 44.7564 12.1328 44.3155 12.1328 43.8558C12.1327 38.5474 13.1927 33.2925 15.2507 28.3993C17.3087 23.5061 20.3231 19.0731 24.1173 15.3606C27.9114 11.648 32.4088 8.73047 37.3455 6.77926C42.2823 4.82805 47.559 3.8824 52.8661 3.9978C58.4709 4.10542 63.9859 5.42482 69.0326 7.86541C74.0792 10.306 78.5378 13.8099 82.1022 18.1366C85.8861 22.6372 88.6662 27.8934 90.2567 33.5541C91.8472 39.2148 92.2115 45.1497 91.3253 50.9625C86.8394 80.3425 55.5424 99.0261 51.9994 101.056C43.4188 95.989 35.6321 89.6847 28.8906 82.3462C25.5439 78.6957 22.5552 74.7325 19.9657 70.511C18.7137 68.3933 17.5896 66.2025 16.5996 63.9503C16.1298 62.8167 15.5908 61.7074 15.1713 60.5582L14.0776 57.0517C13.9265 56.6191 13.6194 56.2585 13.2164 56.0405C12.8134 55.8225 12.3435 55.7627 11.8988 55.873C11.6772 55.9278 11.4696 56.0282 11.2891 56.1679C11.1086 56.3075 10.9593 56.4833 10.8506 56.684C10.742 56.8847 10.6764 57.1058 10.6581 57.3333C10.6398 57.5608 10.6692 57.7895 10.7444 58.005L11.9161 61.749Z" fill="#1559AC"/>
<path d="M10.9588 52.4982C10.4991 52.5005 10.0573 52.32 9.73063 51.9966C9.40394 51.6732 9.21912 51.2332 9.21682 50.7735C9.21452 50.3138 9.39493 49.872 9.71837 49.5453C10.0418 49.2186 10.4818 49.0338 10.9415 49.0315H10.9588C11.4185 49.0315 11.8594 49.2141 12.1845 49.5392C12.5095 49.8642 12.6922 50.3051 12.6922 50.7648C12.6922 51.2245 12.5095 51.6654 12.1845 51.9905C11.8594 52.3155 11.4185 52.4982 10.9588 52.4982Z" fill="#1559AC"/>
<path d="M65.1385 78.5225H38.8611C38.5151 78.5208 38.1764 78.6227 37.8888 78.8151C37.6011 79.0075 37.3777 79.2816 37.2471 79.6021C37.1166 79.9226 37.085 80.2748 37.1564 80.6135C37.2279 80.9521 37.399 81.2616 37.6478 81.5021C41.7825 85.4749 46.2578 89.0773 51.0222 92.2678C51.308 92.4597 51.6444 92.5622 51.9885 92.5622C52.3327 92.5622 52.6691 92.4597 52.9549 92.2678C57.7223 89.0779 62.1995 85.4742 66.3345 81.4986C66.581 81.2589 66.7507 80.9513 66.822 80.6149C66.8932 80.2785 66.8628 79.9285 66.7346 79.6094C66.6064 79.2904 66.3861 79.0167 66.1019 78.8231C65.8177 78.6295 65.4823 78.5249 65.1385 78.5225ZM51.9998 88.7335C48.9773 86.6513 46.0751 84.3995 43.3071 81.9891H60.6925C57.9266 84.402 55.0242 86.6539 51.9998 88.7335Z" fill="#1559AC"/>
<path d="M36.4895 70.0858C31.9275 70.0858 28.0416 66.5295 27.6437 61.9884C27.5815 61.2851 28.1022 60.6633 28.8064 60.6019C29.5089 60.5304 30.1315 61.0605 30.1936 61.7654C30.4773 64.9953 33.2425 67.5266 36.4895 67.5266C39.8376 67.5266 42.6098 64.9106 42.8002 61.5711C42.8398 60.8662 43.4484 60.3066 44.1509 60.3665C44.8566 60.4061 45.396 61.0115 45.3563 61.718C45.0882 66.4098 41.1946 70.0858 36.4895 70.0858Z" fill="#1559AC"/>
<path d="M70.5831 70.0858C67.5389 70.0858 64.7263 68.3077 63.4175 65.5565C63.1137 64.9184 63.3849 64.1552 64.023 63.8498C64.661 63.5498 65.425 63.8195 65.7289 64.4567C66.6156 66.3212 68.5213 67.5266 70.5831 67.5266C73.2387 67.5266 75.5236 65.5487 75.8982 62.9242C75.9985 62.2239 76.6498 61.7327 77.3461 61.8392C78.0463 61.9395 78.5321 62.5876 78.4318 63.2871C77.8785 67.1629 74.504 70.0858 70.5831 70.0858Z" fill="#1559AC"/>
<path d="M71.6842 53.0447L68.1683 31.227H71.5335C72.0371 31.227 72.5213 31.0273 72.8772 30.6706C73.2347 30.3154 73.4337 29.8305 73.4337 29.3268C73.4337 27.5673 73.4337 24.9622 73.4337 23.2027C73.4337 22.6991 73.2339 22.2149 72.8772 21.8589C72.522 21.5014 72.0371 21.3025 71.5335 21.3025C69.9846 21.3025 67.7463 21.3025 65.8329 21.3025C63.7329 21.3025 62.0325 23.003 62.0325 25.1029V48.4135C62.0325 52.3297 58.8569 55.5045 54.9415 55.5045C54.94 55.5045 54.94 55.5045 54.9376 55.5045C52.8851 55.5045 50.9321 54.6232 49.5736 53.0836C48.215 51.5463 47.5824 49.4977 47.8366 47.4607C48.2928 43.8142 48.7319 40.3029 48.7319 40.3029C48.7319 40.3029 41.9067 40.3029 35.4305 40.3029C29.1338 40.3029 24.0293 45.4066 24.0293 51.7041V61.2051H62.0325L71.6842 53.0447Z" fill="#A0C8F9"/>
<path d="M62.0324 62.4851H24.03C23.3236 62.4851 22.75 61.9115 22.75 61.2051V51.7049C22.75 44.7126 28.4389 39.0229 35.4312 39.0229H48.7318C49.0986 39.0229 49.4484 39.1814 49.6916 39.4566C49.9349 39.7317 50.0476 40.0985 50.0025 40.4614L49.108 47.6208C48.8989 49.2925 49.4188 50.9751 50.5341 52.2388C51.6493 53.5001 53.255 54.2252 54.9391 54.2252C58.1473 54.2252 60.7547 51.6186 60.7547 48.4143V25.1036C60.7547 22.3027 63.0342 20.0225 65.8351 20.0225H71.535C72.3743 20.0225 73.1942 20.3621 73.7849 20.9559C74.3748 21.5411 74.7144 22.3625 74.7144 23.2019V29.326C74.7144 30.1662 74.374 30.9861 73.7802 31.5775C73.1958 32.1659 72.3751 32.507 71.5342 32.507H69.6721L72.9494 52.8411C73.0621 53.539 72.5873 54.1957 71.8893 54.3076C71.1922 54.4312 70.534 53.9462 70.422 53.2476L66.9061 31.4306C66.8462 31.0607 66.9527 30.6822 67.1952 30.3978C67.4385 30.1126 67.7944 29.9478 68.1698 29.9478H71.535C71.6982 29.9478 71.8567 29.8825 71.9702 29.7675C72.0899 29.6478 72.1559 29.4893 72.1559 29.326V23.2019C72.1559 23.0387 72.0906 22.8801 71.9764 22.7667C71.8583 22.647 71.6989 22.5817 71.535 22.5817H65.8351C64.4455 22.5817 63.3148 23.7133 63.3148 25.1029V48.4135C63.3148 53.0299 59.5594 56.7845 54.943 56.7845C52.5213 56.7845 50.217 55.7446 48.616 53.9315C47.015 52.1183 46.2682 49.7036 46.5689 47.3037L47.2839 41.5829H35.4312C29.8503 41.5829 25.31 46.124 25.31 51.7049V59.9258H62.0332C62.7396 59.9258 63.3132 60.4994 63.3132 61.2059C63.3132 61.9123 62.7396 62.4851 62.0324 62.4851Z" fill="#1559AC"/>
<path d="M50.4274 32.9104C49.4792 31.97 48.1736 31.426 46.8291 31.426H29.7312C28.3944 31.426 27.081 31.97 26.1406 32.9104C25.1925 33.8586 24.6484 35.1642 24.6484 36.501V38.4051C24.6484 40.146 26.0629 41.5682 27.8038 41.5837H48.7332C49.1451 41.5837 49.5259 41.506 49.8834 41.3661H49.8911C51.0725 40.8998 51.9118 39.7496 51.9118 38.4051V36.501C51.9118 35.1642 51.3678 33.8586 50.4274 32.9104ZM27.8271 39.0268C27.4851 39.0268 27.2131 38.747 27.2131 38.4051V36.501C27.2131 35.8404 27.4774 35.1953 27.9514 34.7213C28.4177 34.255 29.0706 33.9829 29.7312 33.9829H46.8291C47.4974 33.9829 48.1425 34.255 48.6166 34.7213C49.0829 35.1876 49.3549 35.8404 49.3549 36.501V38.4051C49.3549 38.747 49.0751 39.0268 48.7332 39.0268H27.8271Z" fill="#1559AC"/>
<path d="M65.8339 26.3836H58.2331C57.5267 26.3836 56.9531 25.8101 56.9531 25.1036C56.9531 24.3972 57.5259 23.8236 58.2331 23.8236H65.8339C66.5412 23.8236 67.1139 24.3972 67.1139 25.1036C67.1132 25.8101 66.5404 26.3836 65.8339 26.3836Z" fill="#1559AC"/>
<path d="M77.234 57.4055C76.069 55.0763 73.6885 53.6051 71.085 53.6051C70.6863 53.6051 70.2775 53.6051 69.8671 53.6051C66.3807 53.6051 63.3404 55.9786 62.4948 59.3624C62.2291 60.4248 62.0332 61.2059 62.0332 61.2059C62.0332 61.2059 66.4204 61.2059 69.233 61.2059C70.7337 61.2059 72.201 60.7613 73.4492 59.929C75.1038 58.8246 77.234 57.4055 77.234 57.4055Z" fill="#A0C8F9"/>
<path d="M78.3827 56.832C77.2713 54.6015 75.2506 53.0549 72.8958 52.5264C72.4683 52.4254 72.0331 52.3632 71.5746 52.3477H71.5668C71.4114 52.3321 71.2482 52.3243 71.085 52.3243H69.8648C65.7846 52.3243 62.2407 55.0911 61.2537 59.0469L61.0361 59.9251L60.7951 60.8966C60.764 61.0054 60.7563 61.0987 60.7563 61.2075C60.7485 61.4873 60.8495 61.767 61.0283 61.9924C61.2692 62.3033 61.6423 62.482 62.0308 62.482H69.2353C70.9917 62.482 72.6937 61.9691 74.1626 60.9976L77.9474 58.4718C78.4837 58.1143 78.6702 57.4149 78.3827 56.832ZM69.2353 59.9251H63.6707L63.7095 59.793V59.7852L63.7406 59.6687C64.409 56.9796 66.7483 55.0522 69.4917 54.8968H69.4995C69.6239 54.8813 69.7404 54.8813 69.8648 54.8813H71.085C72.8414 54.8813 74.4424 55.6817 75.4916 57.0263L72.7403 58.8604C71.6989 59.5599 70.4865 59.9251 69.2353 59.9251Z" fill="#1559AC"/>
<path d="M37.3302 56.7845H31.6296C30.9232 56.7845 30.3496 56.211 30.3496 55.5045C30.3496 54.798 30.9224 54.2245 31.6296 54.2245H37.3302C38.0367 54.2245 38.6102 54.798 38.6102 55.5045C38.6102 56.211 38.0374 56.7845 37.3302 56.7845Z" fill="#1559AC"/>
<path d="M37.3302 52.06H31.6296C30.9232 52.06 30.3496 51.4865 30.3496 50.78C30.3496 50.0736 30.9224 49.5 31.6296 49.5H37.3302C38.0367 49.5 38.6102 50.0736 38.6102 50.78C38.6102 51.4865 38.0374 52.06 37.3302 52.06Z" fill="#1559AC"/>
</g>
<defs>
<clipPath id="clip0_958_3304">
<rect width="104" height="104" fill="white" transform="translate(0 0.522461)"/>
</clipPath>
</defs>
</svg>
