<svg height="52" viewBox="0 0 90 52" width="90" xmlns="http://www.w3.org/2000/svg"><svg version="1.1" viewBox="150 90 1250 700" xmlns="http://www.w3.org/2000/svg"><path d="m483.57 670.75h41.27c-6.06 23.11-17.62 40.73-34.67 52.83-17.06 12.67-38.52 18.98-64.38 18.98-31.37 0-55.86-10.18-73.46-30.54-17.62-19.81-26.41-48.14-26.41-85.02 0-35.21 8.53-62.73 25.59-82.54 17.6-20.35 42.1-30.54 73.46-30.54 33.02 0 58.61 9.9 76.77 29.71 17.6 20.37 26.41 48.7 26.41 85.02v5.78 3.3c0 2.76-.28 4.68-.83 5.78h-142.8c.54 17.06 4.67 29.71 12.38 37.97 7.15 8.81 17.88 13.21 32.19 13.21 9.35 0 17.34-1.92 23.94-5.78 1.65-.54 3.16-1.51 4.54-2.89 1.37-1.37 2.89-2.89 4.54-4.54.54-1.65 2.6-3.84 6.19-6.6 3.57-2.75 8.67-4.13 15.27-4.13zm-99.05-64.38h84.19c-1.11-14.86-4.95-25.86-11.56-33.02-7.16-7.7-17.34-11.56-30.54-11.56-12.11 0-22.01 3.86-29.71 11.56-7.71 7.71-11.84 18.71-12.38 33.02z"/><path d="m742.84 738.44h-28.89c-8.25 0-15-2.61-20.22-7.84-5.24-5.22-7.84-11.97-7.84-20.23v-112.26c0-13.21-4-22.83-11.97-28.89-7.98-6.05-16.92-9.08-26.82-9.08-9.91 0-18.71 3.03-26.41 9.08-7.71 6.06-11.56 15.68-11.56 28.89v140.32h-57.78v-128.76c0-37.41 9.76-62.45 29.3-75.12 19.53-12.65 41.13-19.52 64.79-20.63 24.21 0 46.5 6.33 66.86 18.98 20.35 12.67 30.54 38.25 30.54 76.77z"/><path d="m1040.09 729.36c-11.56 6.06-23.81 9.76-36.73 11.14-12.93 1.37-24.35 2.06-34.25 2.06-19.81 0-37.14-5.36-52-16.09s-22.29-28.48-22.29-53.24c0-23.11 6.73-39.62 20.22-49.53 13.48-9.9 30.67-16.51 51.59-19.81 2.75 0 6.05-.41 9.91-1.24 3.84-.83 8.25-1.51 13.21-2.06 24.21-3.3 36.32-10.45 36.32-21.46 0-8.25-4.27-13.62-12.79-16.09-8.54-2.48-16.38-3.72-23.53-3.72-7.71 0-14.59 1.11-20.63 3.3-6.06 2.21-10.46 6.33-13.21 12.38h-55.3c2.19-17.05 9.9-31.08 23.11-42.1 14.86-12.65 36.03-18.98 63.56-18.98 30.81 0 53.92 5.24 69.34 15.68 15.95 11.01 23.94 26.41 23.94 46.22v75.11c0 22.01-4 39.21-11.97 51.59-8.01 12.39-17.5 21.34-28.5 26.84zm-13.21-101.53c-7.71 3.86-18.45 7.43-32.19 10.73l-18.98 4.13c-9.9 2.76-17.06 6.33-21.46 10.73-3.86 6.06-5.78 12.11-5.78 18.16 0 8.25 2.48 14.86 7.43 19.81 4.95 4.41 12.1 6.61 21.46 6.61 15.4 0 27.51-4.4 36.32-13.21 8.8-8.79 13.21-20.91 13.21-36.32v-20.64z"/><path d="m1109.3 462.37h29.72c7.7 0 14.3 2.62 19.81 7.84 5.5 5.24 8.25 11.7 8.25 19.4v248.83h-57.78z"/><path d="m1193.73 665.8h56.13c.54 11.01 4.67 19.27 12.38 24.76 8.25 5.51 19.26 8.25 33.02 8.25 9.9 0 18.43-1.92 25.59-5.78 6.6-3.84 9.9-9.08 9.9-15.68 0-9.9-11.56-17.33-34.67-22.29-9.9-1.65-17.33-3.3-22.29-4.95-29.17-7.15-48.7-15.68-58.6-25.59-11.02-9.91-16.51-23.11-16.51-39.62 0-20.91 7.97-38.24 23.94-52 16.51-12.65 37.97-18.98 64.38-18.98 28.61 0 51.45 6.33 68.51 18.98 15.95 13.76 24.48 31.65 25.59 53.65h-35.49c-10.46 0-18.44-4.67-23.94-14.03-2.21-2.19-4.41-4.4-6.61-6.61-6.6-4.95-15.68-7.43-27.24-7.43-11.02 0-19.27 1.65-24.76 4.95-4.95 3.3-7.43 8.25-7.43 14.86 0 8.81 14.3 16.24 42.92 22.29 3.3 1.11 6.19 1.94 8.67 2.48 2.48.55 4.81.82 7.02.82 28.06 7.16 47.59 15.41 58.6 24.76 10.45 9.9 15.68 23.11 15.68 39.62 0 24.22-8.81 42.92-26.41 56.13-16.51 12.11-41.27 18.16-74.29 18.16-31.37 0-54.76-6.32-70.16-18.98-15.97-12.65-23.94-31.08-23.94-55.31v-2.46z"/><path d="m289.1 577.37c12.17-1.46 21.81-11.09 23.27-23.26l.21-35.35-8.2-.06c-14.8-.08-29.15 1.74-43.14 5.51-13.97 3.78-26.19 9.76-36.63 17.98-11.01 8.74-19.69 20.4-26.05 34.93-6.4 14.56-9.61 32.6-9.74 54.06l-.62 106.55 27.3.16c15.83-1.9 28.37-14.42 30.3-30.25l.48-82.75c.1-16.5 4.01-28.59 11.72-36.27 7.04-7.01 17.52-10.74 31.38-11.27h-.28z"/><path d="m602.19 179.08c19.16.12 34.59 14.41 34.49 31.95l-.6 102.26c-.09 15.6-12.43 28.44-28.64 31.02l.22-38.44c.11-17.53-13.43-31.84-30.21-31.94l-11.07-.06c-16.77-.1-30.45 14.04-30.56 31.58l-.22 38.47c-16.17-2.8-28.36-15.8-28.27-31.39l.59-102.27c.11-17.53 15.7-31.65 34.83-31.53zm-30.32-10.32c15.49.09 28.1-11.47 28.19-25.82.08-14.36-12.39-26.08-27.88-26.17-15.5-.09-28.12 11.48-28.2 25.83-.1 14.36 12.39 26.07 27.89 26.16m34.48-12.69c.04 5.72 4.65 10.34 10.35 10.3l47.29-.28c5.7-.03 10.27-4.71 10.23-10.42-.04-5.73-4.66-10.32-10.36-10.29l-37.69.22 29.69-27.17c2.91 1.44 6.3 2.26 9.86 2.24 11.51-.07 20.81-8.8 20.74-19.49-.05-10.7-9.46-19.3-20.97-19.23-11.55.06-20.83 8.78-20.77 19.48.02 4.92 2.04 9.4 5.34 12.79l-34.48 31.52c-5.22.58-9.26 4.97-9.23 10.33m-68.67 0c.04-5.36-4.01-9.76-9.22-10.32l-34.48-31.52c3.3-3.39 5.32-7.87 5.34-12.79.06-10.7-9.22-19.42-20.77-19.48-11.51-.07-20.91 8.53-20.97 19.23-.06 10.69 9.24 19.42 20.74 19.49 3.56.02 6.94-.8 9.86-2.24l29.69 27.17-37.69-.22c-5.69-.04-10.32 4.56-10.36 10.29-.04 5.71 4.54 10.39 10.23 10.42l47.29.28c5.69.03 10.3-4.59 10.34-10.31" fill="#ffc820"/><g fill="#010101"><path d="m592.78 394.13c-.07 12.45-9.56 22.5-21.14 22.44-11.64-.07-20.98-10.24-20.9-22.68l.48-83.61c.07-12.44 9.52-22.48 21.17-22.42 11.58.07 20.94 10.23 20.88 22.67z"/><path d="m358.18 343.12c-4.91 2.44-11.72 4.69-20.47 6.73l-12.08 2.56c-6.27 1.74-10.82 3.99-13.64 6.79-2.45 3.84-3.7 7.7-3.72 11.58-.03 5.26 1.52 9.48 4.64 12.67 3.13 2.84 7.65 4.24 13.58 4.28 9.78.06 17.47-2.68 23.1-8.29 5.61-5.59 8.46-13.31 8.52-23.15zm7.99 64.87c-7.35 3.83-15.13 6.14-23.34 6.98-8.22.83-15.46 1.23-21.73 1.19-12.56-.08-23.57-3.55-32.93-10.48-9.4-6.88-14.03-18.26-13.94-34.07.08-14.74 4.4-25.27 12.99-31.52 8.62-6.27 19.56-10.42 32.82-12.48 1.76.02 11.53-1.68 14.69-2 15.36-2.01 23.06-6.55 23.1-13.58.04-5.26-2.65-8.71-8.04-10.3-5.41-1.62-10.39-2.42-14.91-2.45-4.9-.04-9.26.64-13.11 2.01-3.86 1.39-6.65 4-8.43 7.87l-35.08-.21c1.44-10.9 6.39-19.81 14.82-26.81 9.48-8.04 22.94-11.97 40.39-11.87 19.54.11 34.19 3.52 43.95 10.26 10.07 7.1 15.08 16.95 15 29.6l-.28 47.95c-.09 14.06-2.68 25.03-7.78 32.9-5.11 7.87-11.17 13.56-18.19 17.01"/><path d="m794.01 310.92c-7.39 8.04-10.78 20.04-10.2 36.05.62 16 3.53 27.17 8.72 33.51 2.08 2.81 5.74 5.23 10.95 7.19 5.22 1.95 10.56 2.16 15.98.62 5.43-1.55 10.25-5.48 14.46-11.78 4.25-6.3 6.54-16.47 7.01-30.53.07-12.64-1.9-22.13-5.87-28.5-3.98-6.34-8.58-10.4-13.81-12.19-5.2-1.78-10.44-1.91-15.7-.35-5.26 1.57-9.11 3.55-11.54 5.98m-25.71 92.61c-7.28-6.38-12.47-14.91-15.53-25.66-3.1-10.73-4.62-21.88-4.56-33.5.05-9.47 1.44-18.95 4.13-28.43 2.64-9.45 6.81-17.34 12.43-23.64 9.16-10.48 20.86-16.65 35.18-18.5 14.33-1.85 27.25-.62 38.75 3.67 13.21 5.33 22.95 14.54 29.17 27.59 5.86 11.61 8.74 25.16 8.65 40.62-.06 11.25-1.35 20.89-3.8 28.98-2.52 8.05-5.7 14.9-9.55 20.48-8.47 11.56-19.16 18.68-32.1 21.41-11.55 3.09-23.15 3.29-34.83.59-11.69-2.72-20.98-7.23-27.94-13.61"/><path d="m719.6 234.06-16.19-.1-.35 60.07c-4.16-6.66-9.69-12.15-16.65-16.42-6.62-3.53-14.3-5.35-23.02-5.4-16.41-.1-29.9 6.65-40.46 20.29-10.19 13.31-15.38 31.01-15.51 53.17-.13 22.45 4.85 40.25 14.89 53.29 5.19 6.72 12.16 11.59 20.9 14.62 8.66 3.04 17.58 4.59 26.65 4.64 16.76.11 32.31-4.19 46.68-12.88 14.35-8.71 21.62-25.54 21.77-50.47l.59-101.51c-1.22-10.1-9.21-18.08-19.3-19.3zm-24.36 142.68c-5.28 7.36-12.63 11-22.05 10.95-9.77-.06-17.26-3.78-22.42-11.21-5.22-7.41-7.78-18.14-7.69-32.19.07-12.65 2.75-22.47 8.05-29.45 5.24-7.36 12.44-11 21.51-10.95 9.41.05 16.92 3.61 22.47 10.66 5.19 7.42 7.74 17.45 7.67 30.09-.1 14.05-2.6 24.75-7.54 32.1z"/><path d="m252.58 310.42c7.76-.93 13.91-7.08 14.85-14.84l.14-22.55-5.23-.04c-9.44-.05-18.6 1.11-27.52 3.52-8.91 2.41-16.71 6.22-23.37 11.47-7.02 5.58-12.56 13.01-16.62 22.29-4.08 9.29-6.13 20.8-6.22 34.49l-.39 67.98 17.42.1c10.1-1.21 18.1-9.2 19.33-19.3l.31-52.79c.06-10.53 2.56-18.24 7.48-23.14 4.49-4.47 11.18-6.86 20.02-7.19z"/><path d="m424.37 465.74c7.77-.93 13.92-7.08 14.85-14.85l.26-55.11c4.14 7.4 9.69 12.88 16.67 16.43 6.6 3.19 14.29 4.82 23 4.88 16.41.1 29.89-6.49 40.44-19.78 10.57-13.67 15.9-31.54 16.03-53.67.13-21.44-4.99-39.03-15.41-52.81-5.18-6.35-12.23-11.21-21.11-14.62-8.89-3.37-17.69-5.09-26.42-5.15-16.74-.1-32.31 4.3-46.69 13.15-14.37 8.88-21.61 25.64-21.76 50.22l-.77 131.23m88-90.66c-5.27 7.36-12.46 11.02-21.55 10.97-9.78-.06-17.26-3.8-22.44-11.23-5.22-6.7-7.77-16.72-7.69-30.06.09-14.42 2.58-24.96 7.52-31.59 5.29-7.36 12.63-11 22.06-10.94 9.78.06 17.27 3.78 22.47 11.2 5.18 7.42 7.75 17.97 7.67 31.69-.1 12.62-2.78 22.62-8.04 29.96z"/><path d="m876.41 720.13v-23.43h-17.24c-10.96 0-16.42-4.53-16.42-13.63v-118.69h5.75c7.66 0 14.23-2.53 19.71-7.62 5.46-5.08 8.21-11.63 8.21-19.65v-11.23h-33.66v-36.08c0-7.48-2.75-13.9-8.21-19.25-5.48-5.34-11.78-8.02-18.88-8.02h-29.56v63.31h-4.73c-12 0-21.72 9.5-21.72 21.22v17.29h26.46v133.95c0 24.59 10.53 37.69 31.61 39.29 13.88 1.06 27.05 1.47 39.63 1.37 9.95-1.3 17.83-9.04 19.05-18.83z"/></g></svg></svg>
