<svg width="104" height="105" viewBox="0 0 104 105" fill="none" xmlns="http://www.w3.org/2000/svg">
<g id="scooter (3) 1">
<g id="Layer_4">
<g id="Group">
<g id="Group_2">
<path id="Vector" d="M37.0435 92.9264C30.2911 92.9264 24.5397 87.6625 23.9503 80.9426C23.8637 79.9556 24.5949 79.0825 25.5829 78.9958C26.5698 78.8831 27.443 79.6393 27.5297 80.6284C27.9576 85.5077 32.136 89.333 37.0424 89.333C42.1016 89.333 46.2898 85.3799 46.5768 80.3337C46.6332 79.3446 47.4771 78.6166 48.4727 78.6426C49.4628 78.699 50.2212 79.5483 50.1648 80.5396C49.7694 87.4848 44.0061 92.9264 37.0435 92.9264Z" fill="#1559AC"/>
</g>
<g id="Group_3">
<path id="Vector_2" d="M87.9413 92.9264C83.4401 92.9264 79.2822 90.2971 77.3463 86.2292C76.9206 85.3333 77.3008 84.2619 78.1967 83.834C79.0926 83.4147 80.1641 83.7917 80.5909 84.6855C81.9331 87.5086 84.8181 89.3341 87.9402 89.3341C91.9616 89.3341 95.4207 86.3397 95.9883 82.365C96.1292 81.3846 97.0446 80.6804 98.0206 80.8418C99.0032 80.9826 99.6857 81.8926 99.5449 82.8752C98.7281 88.6039 93.7393 92.9264 87.9413 92.9264Z" fill="#1559AC"/>
</g>
<g id="Group_4">
<g id="Group_5">
<path id="Vector_3" d="M92.2017 23.0558V32.1991C92.2017 32.9466 91.9092 33.6616 91.3567 34.1924C90.8367 34.7449 90.1108 35.0266 89.3742 35.0266C87.1208 35.0266 84.3367 35.0266 84.3367 35.0266L89.4392 66.6708L89.5908 67.6024L88.605 68.4366L86.4492 70.2566L77.5333 77.7749L75.1717 79.7683V79.7791H18.4375C18.4375 79.7791 18.4375 72.8999 18.4375 65.5983C18.4375 61.9583 19.5967 58.5566 21.5683 55.7941C21.915 55.3066 22.2833 54.8299 22.6842 54.3858L24.4175 53.3891H24.4283L25.23 52.9233L25.2408 52.9124L31.0475 49.5758L32.2392 48.8933C33.1383 48.7199 34.0483 48.6224 34.98 48.6008C35.1425 48.5899 35.305 48.5899 35.4675 48.5899H55.3358C55.3358 48.5899 55.2492 49.2724 55.1083 50.3883C54.8483 52.3816 54.4258 55.7833 53.9925 59.2716C53.6025 62.3158 54.545 65.3599 56.5708 67.6566C58.6075 69.9533 61.5108 71.2749 64.5767 71.2749H64.5983C70.4483 71.2749 75.1608 66.5299 75.1608 60.6799V25.8724C75.1608 25.2441 75.2583 24.6483 75.4642 24.0849C76.2008 21.8533 78.335 20.2283 80.8375 20.2283H89.3742C90.1108 20.2283 90.8367 20.5099 91.3567 21.0408C91.9092 21.5608 92.2017 22.3083 92.2017 23.0558Z" fill="#A0C8F9"/>
<path id="Vector_4" d="M33.2462 50.3883C33.1812 50.4533 33.1162 50.5183 33.0403 50.5833C33.7987 50.4424 34.6112 50.3883 35.467 50.3883H33.2462ZM33.2462 50.3883C33.1812 50.4533 33.1162 50.5183 33.0403 50.5833C33.7987 50.4424 34.6112 50.3883 35.467 50.3883H33.2462ZM33.2462 50.3883C33.1812 50.4533 33.1162 50.5183 33.0403 50.5833C33.7987 50.4424 34.6112 50.3883 35.467 50.3883H33.2462ZM33.2462 50.3883C33.1812 50.4533 33.1162 50.5183 33.0403 50.5833C33.7987 50.4424 34.6112 50.3883 35.467 50.3883H33.2462ZM33.2462 50.3883C33.1812 50.4533 33.1162 50.5183 33.0403 50.5833C33.7987 50.4424 34.6112 50.3883 35.467 50.3883H33.2462ZM33.2462 50.3883C33.1812 50.4533 33.1162 50.5183 33.0403 50.5833C33.7987 50.4424 34.6112 50.3883 35.467 50.3883H33.2462ZM33.2462 50.3883C33.1812 50.4533 33.1162 50.5183 33.0403 50.5833C33.7987 50.4424 34.6112 50.3883 35.467 50.3883H33.2462ZM33.2462 50.3883C33.1812 50.4533 33.1162 50.5183 33.0403 50.5833C33.7987 50.4424 34.6112 50.3883 35.467 50.3883H33.2462ZM92.6237 19.7733C91.7787 18.9174 90.587 18.4299 89.3737 18.4299H80.837C77.3378 18.4299 74.3912 20.8458 73.6003 24.0849C73.4487 24.6591 73.3728 25.2549 73.3728 25.8724V60.6799C73.3728 65.5333 69.4295 69.4766 64.5762 69.4766C62.0412 69.4766 59.6145 68.3824 57.9245 66.4649C56.2345 64.5583 55.4545 62.0233 55.7687 59.4883C56.2345 55.6858 56.7112 51.9808 56.9387 50.0958C57.047 49.2941 57.112 48.8174 57.112 48.8174C57.177 48.3083 57.0145 47.7883 56.6787 47.3983C56.3428 47.0083 55.8445 46.7916 55.3353 46.7916H35.467C34.2212 46.7916 33.0078 46.9108 31.8812 47.1383C31.6862 47.1816 31.5128 47.2466 31.3395 47.3441L31.1987 47.4308H31.1878L31.0687 47.4958C30.852 47.7233 30.6245 47.9399 30.397 48.1458L25.2403 52.9124L25.2295 52.9233L24.4278 53.3891H24.417C24.2978 53.3783 24.2003 53.3241 24.1137 53.2483L22.9437 52.1649L21.7845 52.8258C21.622 52.9233 21.4595 53.0424 21.3403 53.1941C20.9503 53.6383 20.582 54.0933 20.2353 54.5591C17.9062 57.7441 16.6387 61.6008 16.6387 65.5983V79.7791C16.6387 80.7649 17.4512 81.5666 18.437 81.5666H75.1603C75.5937 81.5666 75.9945 81.4258 76.3195 81.1441L77.9337 79.7791L80.057 77.9916L89.2328 70.2458L90.7387 68.9783C90.8362 68.8916 90.9228 68.8049 90.9987 68.7074C91.3128 68.3174 91.4428 67.8083 91.3562 67.3208L91.2912 66.9199L86.4487 36.8249H89.3737C90.6303 36.8249 91.7895 36.3266 92.602 35.4816C93.5012 34.6258 93.9887 33.4558 93.9887 32.1991V23.0558C93.9887 21.7883 93.4795 20.5858 92.6237 19.7733ZM32.8778 50.6049C32.932 50.5941 32.9862 50.5833 33.0403 50.5833C33.7987 50.4424 34.6112 50.3883 35.467 50.3883H53.2878C53.0387 52.4033 52.6162 55.6858 52.2045 59.0441C51.7603 62.5974 52.8653 66.1724 55.227 68.8483C57.6103 71.5241 61.012 73.0733 64.5978 73.0733C71.412 73.0733 76.9587 67.5158 76.9587 60.6799V25.8724C76.9587 25.2224 77.1212 24.6158 77.4028 24.0849C78.0528 22.8608 79.3528 22.0266 80.837 22.0266H89.3737C89.6445 22.0266 89.9045 22.1241 90.1212 22.3408C90.2945 22.5033 90.4028 22.7741 90.4028 23.0558V32.1991C90.4028 32.4699 90.2945 32.7191 90.0562 32.9466C89.8828 33.1308 89.6445 33.2283 89.3737 33.2283H84.3362C83.8162 33.2283 83.3178 33.4666 82.9712 33.8674C82.6353 34.2683 82.4837 34.7991 82.5703 35.3191L87.6078 66.6383L87.6512 66.8874L85.7445 68.5016L82.3103 71.3941C82.2995 71.3941 82.2995 71.3941 82.2887 71.4049L79.342 73.8966C79.342 73.9074 79.3312 73.9074 79.3312 73.9074L75.9403 76.7674L74.5103 77.9808H20.2353V65.5983C20.2353 62.3808 21.2428 59.2933 23.0845 56.7366C23.3228 56.4116 23.572 56.0974 23.832 55.7941L32.8778 50.6049ZM33.2462 50.3883C33.1812 50.4533 33.1162 50.5183 33.0403 50.5833C33.7987 50.4424 34.6112 50.3883 35.467 50.3883H33.2462ZM33.2462 50.3883C33.1812 50.4533 33.1162 50.5183 33.0403 50.5833C33.7987 50.4424 34.6112 50.3883 35.467 50.3883H33.2462ZM33.2462 50.3883C33.1812 50.4533 33.1162 50.5183 33.0403 50.5833C33.7987 50.4424 34.6112 50.3883 35.467 50.3883H33.2462ZM33.2462 50.3883C33.1812 50.4533 33.1162 50.5183 33.0403 50.5833C33.7987 50.4424 34.6112 50.3883 35.467 50.3883H33.2462ZM33.2462 50.3883C33.1812 50.4533 33.1162 50.5183 33.0403 50.5833C33.7987 50.4424 34.6112 50.3883 35.467 50.3883H33.2462ZM33.2462 50.3883C33.1812 50.4533 33.1162 50.5183 33.0403 50.5833C33.7987 50.4424 34.6112 50.3883 35.467 50.3883H33.2462ZM33.2462 50.3883C33.1812 50.4533 33.1162 50.5183 33.0403 50.5833C33.7987 50.4424 34.6112 50.3883 35.467 50.3883H33.2462Z" fill="#1559AC"/>
</g>
</g>
<g id="Group_6">
<path id="Vector_5" d="M55.3304 50.3839H32.5501C31.5577 50.3839 30.7539 49.579 30.7539 48.5877C30.7539 47.5954 31.5588 46.7915 32.5501 46.7915H55.3315C55.8992 46.7915 56.3617 46.3192 56.3617 45.7364V42.91C56.3617 41.8765 55.9566 40.8939 55.2221 40.142C54.4973 39.4335 53.5137 39.0284 52.4812 39.0284H40.4064C39.4141 39.0284 38.6102 38.2235 38.6102 37.2322C38.6102 36.2399 39.4152 35.436 40.4064 35.436H52.4802C54.4583 35.436 56.3336 36.2052 57.7614 37.6027C59.1849 39.0555 59.9541 40.9318 59.9541 42.911V45.7375C59.9541 48.2995 57.8795 50.3839 55.3304 50.3839Z" fill="#1559AC"/>
</g>
<g id="Group_7">
<path id="Vector_6" d="M80.85 27.6827H69.5032C68.5109 27.6827 67.707 26.8777 67.707 25.8865C67.707 24.8952 68.5119 24.0903 69.5032 24.0903H80.85C81.8424 24.0903 82.6462 24.8952 82.6462 25.8865C82.6462 26.8777 81.8424 27.6827 80.85 27.6827Z" fill="#1559AC"/>
</g>
<g id="Group_8">
<path id="Vector_7" d="M97.8703 74.1101C96.1316 70.6326 92.5772 68.4366 88.6912 68.4366C88.0954 68.4366 87.4855 68.4366 86.8734 68.4366C81.668 68.4366 77.1299 71.9791 75.8667 77.0318C75.4692 78.6178 75.1777 79.7835 75.1777 79.7835C75.1777 79.7835 81.7276 79.7835 85.9255 79.7835C88.1669 79.7835 90.3563 79.1194 92.2197 77.8768C94.6897 76.2291 97.8703 74.1101 97.8703 74.1101Z" fill="#A0C8F9"/>
<path id="Vector_8" d="M99.4721 73.3008C97.8254 69.9858 94.8029 67.6891 91.2929 66.92C90.6862 66.79 90.0687 66.7033 89.4404 66.6708C89.1912 66.6491 88.9421 66.6383 88.6929 66.6383H86.8729C80.8279 66.6383 75.5846 70.7333 74.1221 76.5941L73.7754 77.9808L73.4396 79.3458C73.3962 79.4866 73.3854 79.6383 73.3854 79.7791C73.3746 80.18 73.5046 80.57 73.7646 80.895C74.0571 81.2741 74.4904 81.5125 74.9671 81.5666C75.0321 81.5775 75.1079 81.5775 75.1729 81.5775H85.9304C88.5304 81.5775 91.0437 80.8191 93.2212 79.3675L98.8654 75.6083C99.6237 75.0991 99.8837 74.1133 99.4721 73.3008ZM85.9304 77.9916H77.4804L77.5346 77.775L77.6104 77.4608C77.9462 76.1391 78.5421 74.9366 79.3329 73.9075C79.3329 73.9075 79.3437 73.9075 79.3437 73.8966C80.1454 72.8675 81.1529 72.0225 82.2904 71.405C82.3012 71.3941 82.3012 71.3941 82.3121 71.3941C83.5579 70.7116 84.9662 70.3108 86.4504 70.2566C86.5912 70.235 86.7321 70.235 86.8729 70.235H88.6929C88.8771 70.235 89.0612 70.2458 89.2346 70.2458C91.7154 70.4083 93.9579 71.6216 95.4312 73.5716L91.2279 76.3883C89.6462 77.4283 87.8154 77.9916 85.9304 77.9916Z" fill="#1559AC"/>
</g>
<g id="Group_9">
<path id="Vector_9" d="M38.2999 73.07H29.7903C28.798 73.07 27.9941 72.2651 27.9941 71.2738C27.9941 70.2826 28.7991 69.4777 29.7903 69.4777H38.2999C39.2922 69.4777 40.0961 70.2826 40.0961 71.2738C40.0961 72.2651 39.2922 73.07 38.2999 73.07Z" fill="#1559AC"/>
</g>
<g id="Group_10">
<path id="Vector_10" d="M38.2999 66.0153H29.7903C28.798 66.0153 27.9941 65.2104 27.9941 64.2191C27.9941 63.2279 28.7991 62.423 29.7903 62.423H38.2999C39.2922 62.423 40.0961 63.2279 40.0961 64.2191C40.0961 65.2104 39.2922 66.0153 38.2999 66.0153Z" fill="#1559AC"/>
</g>
<g id="Group_11">
<path id="Vector_11" d="M41.6428 20.0224L33.1819 14.6383C27.9061 11.2799 21.0919 11.2799 15.8161 14.6383L7.35527 20.0224C5.0586 21.4741 3.89943 24.2474 4.4736 26.9124L5.6436 32.3183C7.18193 39.4466 10.8219 45.8383 16.1736 50.7999L20.2361 54.5591L21.5686 55.7941L21.6769 55.8916C22.0886 56.2708 22.5761 56.5524 23.0853 56.7366C23.5403 56.8991 24.0169 56.9858 24.5044 56.9858C25.5228 56.9858 26.5411 56.6174 27.3319 55.8808L32.8353 50.7783C32.9003 50.7133 32.9761 50.6483 33.0411 50.5833C33.1169 50.5183 33.1819 50.4533 33.2469 50.3883C33.8536 49.8141 34.4386 49.2183 34.9803 48.6008C35.5328 48.0158 36.0419 47.4091 36.5403 46.7916C38.4253 44.4191 39.9853 41.8083 41.1986 39.0241C41.7078 37.8649 42.1519 36.6624 42.53 35.4383C42.855 34.4199 43.1367 33.3691 43.3653 32.3074L44.5244 26.9016C45.0986 24.2474 43.9394 21.4849 41.6428 20.0224ZM31.0694 47.4958C30.8528 47.7233 30.6253 47.9399 30.3978 48.1458L25.2411 52.9124L25.2303 52.9233L24.8836 53.2483C24.7536 53.3674 24.5911 53.4108 24.4286 53.3891H24.4178C24.2986 53.3783 24.2011 53.3241 24.1144 53.2483L22.9444 52.1649L18.6219 48.1566C13.8119 43.7041 10.5403 37.9733 9.1536 31.5599L7.99443 26.1541C7.73443 24.9516 8.25443 23.7058 9.2836 23.0558L17.7444 17.6608C19.8028 16.3608 22.1536 15.7108 24.5044 15.7108C26.8553 15.7108 29.2061 16.3608 31.2536 17.6608L39.7144 23.0558C40.5703 23.5974 41.0794 24.5508 41.0794 25.5366C41.0794 25.7424 41.0578 25.9374 41.0144 26.1433L39.8553 31.5491C38.5336 37.6483 35.5003 43.1516 31.0694 47.4958Z" fill="#1559AC"/>
</g>
<g id="Group_12">
<path id="Vector_12" d="M31.6756 29.3282L23.5398 37.4641C23.0956 37.8974 22.5215 38.1249 21.9365 38.1249C21.3515 38.1249 20.7773 37.8974 20.3331 37.4641L17.2781 34.4091C16.574 33.7049 16.574 32.5674 17.2781 31.8632C17.9823 31.1591 19.1198 31.1591 19.824 31.8632L21.9365 33.9866L29.1298 26.7824C29.834 26.0782 30.9715 26.0782 31.6756 26.7824C32.3798 27.4866 32.3798 28.6241 31.6756 29.3282Z" fill="#1559AC"/>
</g>
</g>
</g>
</g>
</svg>
